<?xml version="1.0" encoding="utf-8"?><svg viewBox="0 0 32 33" xmlns="http://www.w3.org/2000/svg" xmlns:xlink="http://www.w3.org/1999/xlink"><style>:root>svg{display:none}:root>svg:target{display:block}</style><svg viewBox="0 0 11 14" id="arrow" xmlns="http://www.w3.org/2000/svg"><path d="M.032 7.532 11.123.872l.222 12.935L.032 7.532Z"/></svg><svg viewBox="0 0 13 11" id="arrow_down" xmlns="http://www.w3.org/2000/svg"><path d="M3.26 5.313a.5.5 0 0 1 .65-.048l.057.048L8.28 9.626l4.313-4.313a.5.5 0 0 1 .65-.048l.057.048a.5.5 0 0 1 .048.651l-.048.056-4.667 4.667a.5.5 0 0 1-.65.048l-.057-.048L3.26 6.02a.5.5 0 0 1 0-.707Z"/></svg><svg viewBox="0 0 24 15" id="behance" xmlns="http://www.w3.org/2000/svg"><path d="M22 2h-7V0h7v2Zm1.726 10c-.442 1.297-2.029 3-5.101 3-3.074 0-5.564-1.729-5.564-5.675 0-3.91 2.325-5.92 5.466-5.92 3.082 0 4.964 1.782 5.375 4.426.078.506.109 1.188.095 2.14H15.97c.13 3.211 3.483 3.312 4.588 2.029h3.168ZM16.04 8h4.965c-.105-1.547-1.136-2.219-2.477-2.219-1.466 0-2.277.768-2.488 2.219Zm-9.574 6.988H0V.021h6.953c5.476.081 5.58 5.444 2.72 6.906 3.461 1.26 3.577 8.061-3.207 8.061ZM3 6h3.584c2.508 0 2.906-3-.312-3H3v3Zm3.391 3H3v3.016h3.341c3.055 0 2.868-3.016.05-3.016Z"/></svg><svg viewBox="0 0 24 24" id="email" xmlns="http://www.w3.org/2000/svg"><path d="M12.042 23.648C4.229 23.648 0 18.772 0 12.478 0 5.75 4.762.351 13.276.351 19.49.352 24 4.39 24 9.953c0 8.712-10.33 11.012-9.812 6.042-.71 1.108-1.854 2.354-4.053 2.354-2.516 0-4.08-1.842-4.08-4.807 0-4.444 2.921-8.199 6.379-8.199 1.659 0 2.8.876 3.277 2.221l.464-1.632h2.338c-.244.832-2.321 8.527-2.321 8.527-.648 2.666 1.35 2.713 3.122 1.297 3.329-2.58 3.501-9.327-.998-12.14C13.495.723 2.521 2.512 2.521 12.307c0 5.611 3.95 9.381 9.829 9.381 3.436 0 5.542-.93 7.295-1.948l1.177 1.698c-1.711.966-4.461 2.21-8.78 2.21ZM9.698 9.343c-.715 1.34-1.177 3.076-1.177 4.424 0 3.61 3.522 3.633 5.252.24.712-1.395 1.171-3.172 1.171-4.53 0-2.917-3.495-3.434-5.246-.134Z"/></svg><svg viewBox="0 0 23 31" id="facebook" xmlns="http://www.w3.org/2000/svg"><path d="M20.653 5.145h2.829V.218C22.994.151 21.315 0 19.36 0c-4.078 0-6.872 2.565-6.872 7.28v4.34h-4.5v5.508h4.5v13.858h5.518V17.13h4.319l.685-5.508h-5.005V7.827c.001-1.592.43-2.682 2.648-2.682Z"/></svg><svg viewBox="0 0 32 31" id="instagram" xmlns="http://www.w3.org/2000/svg"><path d="M16.471 7.537a7.95 7.95 0 0 0-7.95 7.95 7.95 7.95 0 0 0 7.95 7.951 7.95 7.95 0 0 0 7.95-7.95 7.95 7.95 0 0 0-7.95-7.95Zm0 13.111a5.159 5.159 0 0 1-5.16-5.16 5.16 5.16 0 0 1 5.16-5.16 5.16 5.16 0 0 1 5.16 5.16 5.158 5.158 0 0 1-5.16 5.16Z"/><path d="M22.852.1c-2.85-.133-9.911-.126-12.765 0C7.58.218 5.368.823 3.585 2.606.605 5.586.986 9.601.986 15.49c0 6.027-.335 9.95 2.6 12.884 2.99 2.99 7.064 2.599 12.883 2.599 5.97 0 8.03.004 10.142-.814 2.87-1.114 5.036-3.68 5.248-8.287.134-2.852.126-9.912 0-12.765C31.603 3.667 28.684.369 22.852.1Zm4.513 26.302c-1.954 1.954-4.664 1.78-10.933 1.78-6.456 0-9.044.095-10.933-1.8-2.176-2.164-1.782-5.641-1.782-10.913 0-7.133-.732-12.27 6.427-12.637 1.645-.058 2.13-.077 6.27-.077l.058.038c6.88 0 12.278-.72 12.602 6.438.074 1.633.09 2.124.09 6.258 0 6.38.12 8.984-1.8 10.913Z"/><path d="M24.736 9.081a1.858 1.858 0 1 0 0-3.715 1.858 1.858 0 0 0 0 3.715Z"/></svg><svg viewBox="0 0 24 24" id="instagram_n" xmlns="http://www.w3.org/2000/svg"><path d="M12 2.163c3.204 0 3.584.012 4.85.07 3.252.148 4.771 1.691 4.919 4.919.058 1.265.069 1.645.069 4.849 0 3.205-.012 3.584-.069 4.849-.149 3.225-1.664 4.771-4.919 4.919-1.266.058-1.644.07-4.85.07-3.204 0-3.584-.012-4.849-.07-3.26-.149-4.771-1.699-4.919-4.92-.058-1.265-.07-1.644-.07-4.849 0-3.204.013-3.583.07-4.849.149-3.227 1.664-4.771 4.919-4.919 1.266-.057 1.645-.069 4.849-.069ZM12 0C8.741 0 8.333.014 7.053.072 2.695.272.273 2.69.073 7.052.014 8.333 0 8.741 0 12c0 3.259.014 3.668.072 4.948.2 4.358 2.618 6.78 6.98 6.98C8.333 23.986 8.741 24 12 24c3.259 0 3.668-.014 4.948-.072 4.354-.2 6.782-2.618 6.979-6.98.059-1.28.073-1.689.073-4.948 0-3.259-.014-3.667-.072-4.947-.196-4.354-2.617-6.78-6.979-6.98C15.668.014 15.259 0 12 0Zm0 5.838a6.162 6.162 0 1 0 0 12.324 6.162 6.162 0 0 0 0-12.324ZM12 16a4 4 0 1 1 0-8 4 4 0 0 1 0 8Zm6.406-11.845a1.44 1.44 0 1 0 0 2.881 1.44 1.44 0 0 0 0-2.881Z"/></svg><svg viewBox="0 0 32 31" id="linkedin" xmlns="http://www.w3.org/2000/svg"><path d="M31.923 30.986v-.002h.007V19.62c0-5.56-1.197-9.842-7.696-9.842-3.124 0-5.221 1.715-6.077 3.34h-.09v-2.82h-6.163v20.686h6.417V20.741c0-2.697.511-5.305 3.851-5.305 3.291 0 3.34 3.078 3.34 5.478v10.072h6.41ZM1.457 10.3h6.424v20.686H1.457V10.3ZM4.665 0a3.722 3.722 0 0 0-3.72 3.72c0 2.055 1.666 3.757 3.72 3.757 2.054 0 3.721-1.702 3.721-3.756A3.724 3.724 0 0 0 4.666 0Z"/></svg><svg viewBox="0 0 17 24" id="phone" xmlns="http://www.w3.org/2000/svg"><path d="M3.176 1.322 6.02 0l4.041 7.89-2.724 1.341c-.538 1.259 2.16 6.289 3.297 6.372.09-.058 2.671-1.328 2.671-1.328l4.11 7.932s-2.764 1.354-2.854 1.396C6.7 27.194-4.542 5.345 3.176 1.322Zm1.93 1.274L4.081 3.1C-1.212 5.862 8.26 24.285 13.73 21.786l.971-.474-2.27-4.383-1.027.5C8.241 18.976 3.142 9.21 6.35 7.491l1.007-.497-2.25-4.398Z"/></svg><svg viewBox="0 0 24 24" id="pinterest" xmlns="http://www.w3.org/2000/svg"><path fill-rule="evenodd" clip-rule="evenodd" d="M12 0C5.373 0 0 5.372 0 12c0 5.084 3.163 9.426 7.627 11.174-.105-.949-.2-2.405.042-3.441.218-.937 1.407-5.965 1.407-5.965s-.359-.719-.359-1.782c0-1.668.967-2.914 2.171-2.914 1.023 0 1.518.769 1.518 1.69 0 1.029-.655 2.568-.994 3.995-.283 1.194.599 2.169 1.777 2.169 2.133 0 3.772-2.249 3.772-5.495 0-2.873-2.064-4.882-5.012-4.882-3.414 0-5.418 2.561-5.418 5.207 0 1.031.397 2.138.893 2.738a.36.36 0 0 1 .083.345l-.333 1.36c-.053.22-.174.267-.402.161-1.499-.698-2.436-2.889-2.436-4.649 0-3.785 2.75-7.262 7.929-7.262 4.163 0 7.398 2.967 7.398 6.931 0 4.136-2.607 7.464-6.227 7.464-1.216 0-2.359-.631-2.75-1.378l-.748 2.853c-.271 1.043-1.002 2.35-1.492 3.146C9.57 23.812 10.763 24 12 24c6.627 0 12-5.373 12-12 0-6.628-5.373-12-12-12Z"/></svg><svg viewBox="0 0 23 33" id="point" xmlns="http://www.w3.org/2000/svg"><path d="M11.5 2.75c4.395 0 8.25 3.6 8.25 7.703 0 4.253-3.428 9.806-8.25 17.409-4.822-7.603-8.25-13.156-8.25-17.41 0-4.102 3.856-7.702 8.25-7.702Zm0-2.75C5.728 0 .5 4.68.5 10.453c0 5.772 4.77 12.663 11 22.547 6.23-9.884 11-16.775 11-22.547C22.5 4.679 17.274 0 11.5 0Zm0 15.125a4.125 4.125 0 1 1 0-8.25 4.125 4.125 0 0 1 0 8.25Z"/></svg></svg>